<?xml version="1.0" standalone="no"?>
<!DOCTYPE svg PUBLIC "-//W3C//DTD SVG 20010904//EN"
 "http://www.w3.org/TR/2001/REC-SVG-20010904/DTD/svg10.dtd">
<svg version="1.0" xmlns="http://www.w3.org/2000/svg"
 width="2049.000000pt" height="2049.000000pt" viewBox="0 0 2049.000000 2049.000000"
 preserveAspectRatio="xMidYMid meet">
<metadata>
Created by potrace 1.14, written by Peter Selinger 2001-2017
</metadata>
<g transform="translate(0.000000,2049.000000) scale(0.100000,-0.100000)"
fill="#000000" stroke="none">
<path d="M6020 15422 c0 -16 -70 -79 -205 -185 -71 -56 -154 -125 -183 -153
l-53 -51 6 -69 c3 -38 8 -82 10 -99 2 -16 7 -57 10 -90 3 -33 7 -73 10 -90 2
-16 7 -61 10 -100 6 -76 13 -150 20 -205 2 -19 7 -71 11 -115 3 -44 7 -93 9
-110 1 -16 6 -66 9 -110 4 -44 9 -105 11 -135 3 -30 7 -89 10 -130 3 -41 8
-100 10 -130 3 -30 7 -93 10 -140 3 -47 7 -114 10 -150 11 -162 32 -614 41
-890 5 -160 5 -1064 0 -1180 -3 -52 -7 -162 -11 -245 -3 -82 -8 -179 -10 -215
-2 -36 -7 -108 -10 -160 -3 -52 -8 -115 -10 -140 -2 -25 -6 -76 -10 -115 -12
-148 -16 -191 -20 -225 -2 -19 -7 -60 -10 -90 -3 -30 -8 -71 -10 -90 -2 -19
-7 -60 -10 -90 -4 -30 -8 -66 -10 -80 -2 -14 -7 -45 -10 -70 -3 -25 -7 -56
-10 -70 -2 -14 -7 -45 -10 -70 -3 -25 -7 -56 -9 -70 -3 -14 -7 -43 -10 -65 -4
-22 -13 -76 -21 -120 -8 -44 -17 -96 -20 -115 -5 -29 -37 -188 -61 -300 -3
-14 -7 -38 -10 -55 -7 -41 -112 -454 -123 -485 -5 -14 -19 -59 -31 -100 -178
-607 -454 -1182 -774 -1610 -616 -825 -1487 -1262 -2516 -1263 -115 0 -292 8
-365 17 -16 2 -57 7 -90 11 -121 13 -277 42 -485 90 -89 21 -331 103 -470 160
-69 29 -235 113 -285 145 -16 11 -37 23 -45 27 -69 31 -245 195 -279 259 -30
57 -25 32 5 -29 49 -95 149 -210 277 -314 74 -60 327 -233 342 -233 3 0 36
-17 73 -38 331 -186 839 -345 1283 -402 254 -32 698 -35 894 -5 247 38 239 36
345 61 36 9 74 17 85 20 71 14 348 105 410 134 11 5 54 23 95 41 541 229 1075
665 1477 1207 115 154 269 393 365 567 55 99 205 402 242 490 21 50 44 104 52
120 178 399 414 1211 509 1755 35 201 66 382 69 410 3 19 7 49 10 65 2 17 7
53 11 80 3 28 8 61 10 75 6 37 33 265 40 335 3 33 8 71 10 85 3 14 7 59 10
100 3 41 7 95 10 120 12 112 22 245 39 545 33 563 33 1573 1 2080 -2 39 -7
126 -11 195 -3 69 -7 148 -9 175 -4 72 -15 231 -20 295 -3 30 -7 87 -10 125
-3 39 -8 93 -10 120 -3 28 -7 77 -9 110 -4 54 -11 133 -21 235 -2 19 -7 67
-10 105 -3 39 -8 84 -10 100 -7 55 -16 139 -19 180 -6 82 -10 86 -151 158 -38
20 -124 61 -190 92 -66 31 -133 67 -150 79 -44 33 -55 38 -55 28z"/>
<path d="M14872 15375 c-38 -32 -362 -199 -362 -187 0 5 -18 -7 -39 -27 -21
-20 -103 -74 -181 -121 -78 -47 -157 -98 -176 -115 -36 -32 -35 -25 -49 -245
-5 -80 -17 -234 -20 -270 -2 -19 -6 -71 -10 -115 -3 -44 -8 -91 -10 -105 -3
-14 -7 -59 -11 -100 -3 -41 -8 -86 -9 -100 -2 -14 -6 -59 -10 -100 -4 -41 -9
-78 -11 -81 -1 -3 -6 -41 -9 -85 -4 -43 -9 -82 -10 -85 -2 -3 -7 -28 -10 -55
-5 -45 -33 -243 -40 -289 -2 -11 -6 -45 -10 -75 -4 -30 -9 -58 -11 -61 -2 -4
-6 -24 -9 -45 -11 -76 -27 -161 -57 -309 -16 -82 -32 -161 -34 -175 -3 -14
-14 -65 -25 -115 -12 -49 -22 -97 -24 -105 -57 -260 -252 -921 -314 -1065 -5
-11 -28 -69 -51 -130 -23 -60 -45 -119 -50 -130 -5 -11 -34 -76 -63 -145 -145
-335 -333 -681 -507 -930 -88 -128 -105 -150 -117 -150 -7 0 -40 35 -74 77
-328 412 -652 1155 -853 1953 -64 256 -139 621 -172 840 -3 25 -8 52 -9 60 -1
8 -6 40 -10 70 -4 30 -9 62 -10 70 -2 8 -6 42 -9 75 -4 33 -9 67 -11 75 -2 8
-7 45 -10 82 -3 37 -8 75 -10 86 -2 10 -6 56 -10 103 -3 46 -8 98 -10 114 -8
70 -19 224 -30 405 -3 63 -8 146 -10 185 -5 81 -16 544 -19 753 -1 124 -4 146
-19 157 -10 7 -75 34 -145 60 -70 26 -131 51 -137 55 -15 11 -200 81 -320 121
-33 11 -69 24 -80 29 -11 5 -55 23 -97 40 -42 17 -82 38 -89 46 -10 13 -16 10
-42 -21 -37 -46 -118 -110 -335 -265 -162 -116 -248 -191 -238 -208 2 -4 7
-34 11 -67 3 -33 8 -73 10 -90 7 -53 35 -308 40 -367 2 -31 7 -87 10 -125 3
-37 7 -90 10 -118 33 -370 47 -1002 32 -1500 -4 -132 -10 -269 -12 -305 -10
-173 -16 -271 -21 -330 -3 -36 -7 -85 -9 -110 -2 -25 -7 -79 -10 -120 -4 -41
-8 -86 -10 -100 -2 -14 -7 -58 -10 -99 -4 -41 -8 -88 -11 -105 -2 -17 -6 -53
-9 -81 -3 -27 -8 -67 -10 -87 -3 -21 -7 -57 -10 -80 -3 -24 -8 -54 -10 -68 -3
-14 -7 -50 -10 -80 -3 -30 -8 -62 -10 -70 -2 -8 -7 -37 -10 -65 -3 -27 -8 -61
-10 -75 -29 -172 -47 -281 -51 -310 -3 -19 -7 -42 -10 -51 -2 -9 -7 -34 -9
-55 -4 -31 -76 -403 -90 -464 -2 -8 -11 -51 -20 -95 -35 -169 -145 -617 -195
-795 -11 -41 -22 -82 -25 -92 -7 -32 -77 -265 -121 -408 -370 -1190 -863
-2213 -1347 -2795 -80 -96 -242 -251 -320 -306 -246 -174 -439 -170 -621 14
-106 106 -195 267 -263 477 -28 86 -79 293 -88 360 -4 25 -9 47 -12 50 -3 3
-3 -13 0 -35 17 -120 27 -186 37 -235 6 -30 13 -67 15 -81 13 -71 67 -269 96
-346 114 -314 291 -500 521 -549 78 -16 230 -12 319 9 320 77 696 354 1084
797 65 74 234 289 296 375 35 50 66 92 70 95 26 22 350 534 439 695 197 353
330 615 467 915 14 30 38 83 54 118 16 35 29 65 29 67 0 3 14 35 31 72 17 38
40 91 51 118 11 28 26 64 33 80 8 17 43 104 79 195 60 154 81 210 184 495 52
143 194 579 218 670 2 6 31 107 64 225 64 225 174 663 210 835 12 55 23 107
25 115 11 47 47 227 51 249 2 14 6 37 9 51 3 14 8 41 11 60 4 19 8 44 10 55 5
22 9 47 25 140 6 33 12 71 15 85 2 14 7 45 10 70 3 25 9 48 13 52 3 4 19 -23
36 -60 73 -166 210 -429 322 -617 325 -543 750 -1003 1081 -1170 54 -26 54
-26 35 -48 -10 -12 -20 -24 -23 -27 -3 -3 -23 -27 -45 -55 -65 -82 -266 -277
-338 -329 -37 -26 -91 -61 -119 -77 -111 -62 93 10 237 83 143 73 340 208 480
329 55 47 346 338 385 385 14 16 46 54 71 84 171 205 404 544 542 790 150 268
297 572 422 878 21 51 39 91 41 90 1 -2 5 -102 8 -223 3 -121 8 -265 10 -320
11 -206 18 -331 22 -380 2 -27 6 -88 9 -135 2 -47 7 -101 9 -120 3 -19 8 -73
11 -120 3 -47 8 -98 10 -115 2 -16 7 -61 10 -100 4 -38 8 -83 10 -100 2 -16 9
-75 15 -130 6 -55 13 -111 15 -125 3 -14 7 -49 11 -79 3 -30 8 -62 9 -70 2 -9
6 -41 10 -71 4 -30 9 -59 10 -65 1 -5 5 -32 9 -60 4 -27 11 -72 16 -100 5 -27
12 -68 15 -90 4 -22 9 -53 11 -70 10 -61 75 -389 79 -394 2 -4 6 -27 10 -51 6
-39 71 -307 125 -515 60 -229 231 -739 300 -890 5 -11 30 -69 55 -130 96 -227
259 -542 383 -740 62 -99 177 -267 215 -315 7 -9 32 -42 56 -75 210 -284 544
-598 841 -793 63 -41 126 -82 140 -91 46 -30 264 -139 360 -179 174 -73 453
-157 593 -177 23 -4 44 -8 47 -10 3 -2 32 -6 65 -10 33 -4 74 -8 90 -11 143
-18 414 -23 585 -10 85 6 127 11 275 32 56 8 249 49 337 73 599 159 1186 518
1384 846 42 69 55 113 16 53 -178 -274 -824 -573 -1392 -644 -24 -3 -47 -7
-50 -9 -3 -2 -52 -7 -110 -12 -191 -15 -601 -8 -680 12 -8 2 -35 6 -60 9 -25
3 -56 8 -70 11 -14 3 -41 8 -60 11 -102 18 -320 82 -445 131 -672 264 -1210
789 -1605 1568 -115 227 -168 350 -268 620 -64 173 -176 540 -217 715 -26 107
-80 350 -90 405 -2 11 -6 31 -9 45 -3 14 -10 50 -16 80 -10 49 -51 291 -64
380 -3 19 -8 46 -10 60 -3 14 -7 48 -10 75 -4 28 -8 61 -11 75 -4 24 -8 58
-20 165 -3 28 -8 61 -10 75 -4 23 -19 170 -31 300 -2 30 -7 75 -9 100 -3 25
-7 83 -10 130 -3 47 -8 105 -10 130 -2 25 -7 92 -10 150 -3 58 -8 139 -10 180
-26 445 -25 1596 0 2020 2 30 6 127 10 215 3 88 8 180 10 205 2 25 6 95 10
155 3 61 8 133 10 160 2 28 7 95 10 150 3 55 8 118 10 140 4 38 9 107 20 260
3 39 7 88 10 110 2 22 7 76 10 120 6 82 10 132 20 220 8 82 24 245 30 321 8
86 13 80 -175 241 -74 64 -158 140 -187 170 l-51 53 -30 -25z"/>
<path d="M7017 14964 c-1 -1 -58 -4 -127 -8 -69 -3 -152 -9 -185 -12 -33 -4
-69 -7 -80 -8 -23 -1 -23 -11 -10 -136 4 -41 9 -92 11 -113 2 -21 5 -53 8 -70
3 -18 12 -95 21 -172 8 -77 18 -157 20 -177 10 -77 14 -115 20 -173 3 -33 8
-69 10 -80 2 -11 4 -25 4 -32 1 -12 10 -12 162 2 132 13 216 16 404 16 110 0
225 -2 255 -5 30 -3 82 -8 115 -11 53 -5 90 -11 202 -30 465 -79 828 -296
1050 -630 202 -302 306 -704 303 -1165 0 -80 -2 -161 -4 -180 -2 -19 -7 -69
-11 -110 -19 -216 -79 -465 -155 -645 -31 -73 -99 -211 -133 -270 -22 -38 -45
-79 -51 -90 -17 -31 -109 -169 -121 -181 -5 -6 -17 -22 -25 -34 -48 -72 -185
-236 -275 -330 -161 -168 -328 -315 -500 -439 -39 -27 -75 -55 -82 -61 -7 -5
-14 -10 -17 -10 -2 0 -32 -18 -66 -41 -131 -87 -454 -248 -529 -264 -9 -2 -36
-11 -61 -20 -38 -13 -155 -43 -236 -60 -12 -3 -57 -8 -100 -11 -130 -10 -99
-17 46 -10 137 6 187 11 250 23 19 3 42 7 50 9 294 55 645 193 960 378 164 96
396 257 514 356 134 114 275 247 386 367 202 216 371 459 494 710 107 217 213
534 250 748 39 221 51 356 51 580 0 389 -43 629 -176 985 -22 58 -135 276
-176 338 -20 31 -63 92 -95 135 -213 286 -528 531 -869 677 -41 17 -83 35 -94
40 -71 32 -350 116 -445 134 -72 14 -138 26 -165 31 -16 2 -40 7 -52 9 -12 3
-49 7 -82 11 -33 3 -68 8 -79 10 -57 11 -574 28 -585 19z"/>
<path d="M5037 14784 c-1 -1 -47 -5 -102 -8 -55 -3 -111 -8 -125 -11 -14 -2
-51 -6 -83 -10 -119 -11 -329 -57 -482 -105 -527 -163 -954 -493 -1203 -930
-139 -244 -221 -499 -259 -810 -15 -125 -8 -508 12 -580 2 -8 6 -31 9 -50 8
-51 16 -90 27 -135 5 -22 12 -50 14 -62 8 -34 81 -246 93 -268 6 -11 29 -58
53 -105 308 -616 1021 -1148 1998 -1491 269 -95 472 -153 289 -83 -167 63
-561 276 -783 423 -76 50 -276 195 -321 233 -141 118 -194 166 -290 262 -60
61 -147 158 -192 216 -45 58 -86 110 -91 116 -5 5 -14 21 -21 35 -7 13 -16 26
-19 29 -4 3 -18 23 -31 45 -126 214 -195 404 -226 625 -13 95 -13 413 0 495
26 158 72 324 124 445 39 93 110 223 123 228 5 2 9 8 9 14 0 6 26 43 57 82
175 218 385 364 663 460 103 37 272 79 365 92 28 3 58 8 69 10 21 4 124 14
201 19 58 5 358 5 428 1 26 -1 50 0 52 3 1 3 6 58 9 121 9 156 16 273 21 345
2 33 7 113 10 179 4 65 8 127 10 138 2 10 -2 21 -10 24 -13 5 -393 13 -398 8z"/>
<path d="M6718 9403 c7 -3 16 -2 19 1 4 3 -2 6 -13 5 -11 0 -14 -3 -6 -6z"/>
<path d="M6660 6355 c0 -5 5 -17 10 -25 5 -8 10 -10 10 -5 0 6 -5 17 -10 25
-5 8 -10 11 -10 5z"/>
</g>
</svg>
