<?xml version="1.0" encoding="UTF-8" standalone="no"?>
<!-- Created with Inkscape (http://www.inkscape.org/) -->

<svg
   xmlns:dc="http://purl.org/dc/elements/1.1/"
   xmlns:cc="http://creativecommons.org/ns#"
   xmlns:rdf="http://www.w3.org/1999/02/22-rdf-syntax-ns#"
   xmlns:svg="http://www.w3.org/2000/svg"
   xmlns="http://www.w3.org/2000/svg"
   xmlns:sodipodi="http://sodipodi.sourceforge.net/DTD/sodipodi-0.dtd"
   xmlns:inkscape="http://www.inkscape.org/namespaces/inkscape"
   width="541.8667mm"
   height="328.46106mm"
   viewBox="0 0 541.8667 328.46106"
   version="1.1"
   id="svg8"
   inkscape:version="0.92.5 (2060ec1f9f, 2020-04-08)"
   sodipodi:docname="original-logo.svg">
  <defs
     id="defs2">
    <inkscape:path-effect
       effect="powerstroke"
       id="path-effect95"
       is_visible="true"
       offset_points="0.028688693,16.896481"
       sort_points="true"
       interpolator_type="CubicBezierJohan"
       interpolator_beta="0.2"
       start_linecap_type="zerowidth"
       linejoin_type="extrp_arc"
       miter_limit="4"
       end_linecap_type="zerowidth" />
    <inkscape:path-effect
       effect="powerstroke"
       id="path-effect87"
       is_visible="true"
       offset_points="0.019434536,19.01134"
       sort_points="true"
       interpolator_type="CubicBezierJohan"
       interpolator_beta="0.2"
       start_linecap_type="zerowidth"
       linejoin_type="extrp_arc"
       miter_limit="4"
       end_linecap_type="zerowidth" />
    <inkscape:path-effect
       effect="powerstroke"
       id="path-effect79"
       is_visible="true"
       offset_points="0,27.613"
       sort_points="true"
       interpolator_type="CubicBezierJohan"
       interpolator_beta="0.2"
       start_linecap_type="zerowidth"
       linejoin_type="extrp_arc"
       miter_limit="4"
       end_linecap_type="zerowidth" />
    <inkscape:path-effect
       end_linecap_type="zerowidth"
       miter_limit="4"
       linejoin_type="extrp_arc"
       start_linecap_type="zerowidth"
       interpolator_beta="0.2"
       interpolator_type="CubicBezierJohan"
       sort_points="true"
       offset_points="0.0094858049,20.506946"
       is_visible="true"
       id="path-effect63"
       effect="powerstroke" />
    <inkscape:path-effect
       end_linecap_type="zerowidth"
       miter_limit="4"
       linejoin_type="extrp_arc"
       start_linecap_type="zerowidth"
       interpolator_beta="0.2"
       interpolator_type="CubicBezierJohan"
       sort_points="true"
       offset_points="0.022752831,27.613011"
       is_visible="true"
       id="path-effect59"
       effect="powerstroke" />
    <inkscape:path-effect
       effect="powerstroke"
       id="path-effect55"
       is_visible="true"
       offset_points="0.022752831,27.613011"
       sort_points="true"
       interpolator_type="CubicBezierJohan"
       interpolator_beta="0.2"
       start_linecap_type="zerowidth"
       linejoin_type="extrp_arc"
       miter_limit="4"
       end_linecap_type="zerowidth" />
    <inkscape:path-effect
       effect="powerstroke"
       id="path-effect51"
       is_visible="true"
       offset_points="0,20.5069"
       sort_points="true"
       interpolator_type="CubicBezierJohan"
       interpolator_beta="0.2"
       start_linecap_type="zerowidth"
       linejoin_type="extrp_arc"
       miter_limit="4"
       end_linecap_type="zerowidth" />
    <inkscape:path-effect
       end_linecap_type="zerowidth"
       miter_limit="4"
       linejoin_type="extrp_arc"
       start_linecap_type="zerowidth"
       interpolator_beta="0.2"
       interpolator_type="CubicBezierJohan"
       sort_points="true"
       offset_points="0,16.968"
       is_visible="true"
       id="path-effect47"
       effect="powerstroke" />
    <inkscape:path-effect
       effect="powerstroke"
       id="path-effect43"
       is_visible="true"
       offset_points="0,16.968"
       sort_points="true"
       interpolator_type="CubicBezierJohan"
       interpolator_beta="0.2"
       start_linecap_type="zerowidth"
       linejoin_type="extrp_arc"
       miter_limit="4"
       end_linecap_type="zerowidth" />
    <inkscape:path-effect
       effect="powerstroke"
       id="path-effect39"
       is_visible="true"
       offset_points="0,16.968"
       sort_points="true"
       interpolator_type="CubicBezierJohan"
       interpolator_beta="0.2"
       start_linecap_type="zerowidth"
       linejoin_type="extrp_arc"
       miter_limit="4"
       end_linecap_type="zerowidth" />
    <inkscape:path-effect
       effect="powerstroke"
       id="path-effect35"
       is_visible="true"
       offset_points="0.0094858049,20.506946"
       sort_points="true"
       interpolator_type="CubicBezierJohan"
       interpolator_beta="0.2"
       start_linecap_type="zerowidth"
       linejoin_type="extrp_arc"
       miter_limit="4"
       end_linecap_type="zerowidth" />
  </defs>
  <sodipodi:namedview
     id="base"
     pagecolor="#ffffff"
     bordercolor="#666666"
     borderopacity="1.0"
     inkscape:pageopacity="0.0"
     inkscape:pageshadow="2"
     inkscape:zoom="0.24748737"
     inkscape:cx="-776.07126"
     inkscape:cy="799.67714"
     inkscape:document-units="mm"
     inkscape:current-layer="layer3"
     showgrid="false"
     showborder="false"
     inkscape:window-width="1920"
     inkscape:window-height="1020"
     inkscape:window-x="0"
     inkscape:window-y="28"
     inkscape:window-maximized="1" />
  <metadata
     id="metadata5">
    <rdf:RDF>
      <cc:Work
         rdf:about="">
        <dc:format>image/svg+xml</dc:format>
        <dc:type
           rdf:resource="http://purl.org/dc/dcmitype/StillImage" />
        <dc:title />
      </cc:Work>
    </rdf:RDF>
  </metadata>
  <g
     inkscape:groupmode="layer"
     id="layer3"
     inkscape:label="logo"
     transform="translate(54.646558,31.461015)"
     style="display:inline">
    <g
       id="g99"
       inkscape:export-xdpi="2048"
       inkscape:export-ydpi="2048"
       transform="matrix(0.63542937,0,0,0.75956808,237.01578,17.416071)">
      <path
         id="path33"
         transform="scale(0.26458333)"
         d="m -786.79102,-243.20703 c 1.4242,11.77967 -71.55804,55.37021 -70.30664,66.71289 18.49241,167.6139355 32.74397,354.96893 30.15039,539.91797 -2.60207,185.55534 -21.96317,352.46832 -61.96484,493.85547 -31.78576,112.34776 -74.80474,202.1613 -126.86909,272.0117 -49.3003,66.142 -105.7835,113.1354 -166.3458,144.9356 -60.5443,31.7907 -124.1903,47.8606 -186.1289,52.9414 -64.7242,5.3093 -125.9394,-1.5066 -177.6543,-13.5703 -57.9749,-13.5241 -103.6932,-33.4554 -133.9921,-51.7266 -17.989,-10.8479 -30.9978,-21.3256 -39.7129,-30.6953 -5.0067,-5.3828 -8.6223,-10.4201 -11.0645,-15.0625 -2.812,-5.3456 -4.0529,-10.136 -4.125,-14.3106 0.072,4.1447 0.9441,9.0175 3.1777,14.7422 1.9448,4.9841 4.9201,10.6035 9.254,16.8457 7.5543,10.8809 19.2241,23.6104 36.1074,37.4649 28.4303,23.33 72.5717,50.408 131.3203,72.4179 52.1525,19.5387 116.489,35.215 187.6758,38.0313 68.0959,2.694 142.6338,-6.4128 217.3593,-35.5664 75.2587,-29.3616 148.2463,-78.1282 213.45122,-151.2442 68.64403,-76.9723 125.02692,-176.8271 167.37695,-299.40035 53.05964,-153.56994 80.81094,-333.18659 88.91015,-527.53125 8.06675,-193.56565 -3.91063,-389.412648 -22.84765,-561.05664 -1.28743,-11.66917 -82.34729,-37.93322 -83.77149,-49.71289 z m 1396.84961,4.04101 c -0.94389,8.42814 -39.64144,24.26993 -62.02734,36.87696 -0.90536,-1.39065 -1.38827,-2.60905 -1.34375,-3.61328 -0.24529,5.53108 -16.7001,15.66442 -33.24219,25.42773 -16.52583,9.75373 -33.13488,19.13404 -33.47851,24.24805 -6.06505,90.259269 -14.88296,199.436162 -37.71289,319.01758 -22.63265,118.54795 -54.55833,222.68531 -94.34375,311.71484 -31.0302,69.43763 -63.74254,122.64884 -93.54297,161.59961 -3.36165,-3.19074 -7.23631,-7.37762 -11.69141,-12.8457 -8.33225,-10.22688 -19.05142,-25.32084 -31.29492,-45.77149 C 189.89663,541.60261 163.11402,488.16943 138.1875,416.54492 109.33337,333.6347 86.889887,237.82106 73.367188,127.98242 59.65561,16.609597 58.192613,-81.915498 57.666016,-165.73438 c -0.01965,-3.12315 -18.012554,-9.39249 -35.960938,-15.91796 -1.736481,-0.63133 -3.462239,-1.2637 -5.18164,-1.89649 -7.1907746,-3.70592 -16.97610398,-7.69484 -27.634766,-11.70508 -1.923106,-1.19858 -3.021951,-2.24297 -3.013672,-3.07812 -0.0046,0.46069 -0.379299,0.98934 -1.019531,1.56836 -4.19062,-1.54837 -8.441589,-3.09445 -12.736328,-4.62305 -27.857011,-9.91495 -55.846732,-19.07987 -56.972657,-25.6582 1.158236,6.76711 -22.363164,24.31132 -46.232424,41.17187 -23.83817,16.8386 -48.00373,32.99095 -47.19531,39.20703 9.59294,73.762096 18.22033,164.985467 18.83398,274.22852 0.61512,109.50215 -6.90967,229.21071 -25.99609,357.15039 -31.76949,212.95658 -91.63496,419.73563 -166.43164,585.09961 -35.37964,78.2189 -71.93136,142.1619 -106.70703,189.3984 -17.79331,24.1691 -34.80417,43.5374 -50.74219,58.3301 -16.50579,15.3197 -31.59828,25.4939 -45.17383,31.3067 -14.12106,6.0462 -27.40609,7.7445 -40.24023,4.6777 -14.29157,-3.4151 -28.32245,-12.8435 -41.17383,-28.8262 -14.46484,-17.9893 -26.10156,-42.6108 -34.95508,-71.3965 -10.89601,-35.4264 -17.12264,-75.6225 -20.07617,-114.6211 2.95026,38.9555 7.43768,79.3189 15.36133,115.8536 6.38808,29.4543 15.0272,56.5269 27.03906,78.5136 10.60544,19.4124 24.37576,35.8601 42.83594,46.3164 17.33437,9.8187 37.91415,13.8151 61.24414,10.8614 21.83043,-2.7639 45.10448,-11.4902 69.25195,-25.6758 23.28654,-13.6799 47.44284,-32.4663 72.08399,-56.0078 48.08277,-45.937 97.81369,-109.7966 145.99804,-188.1543 C -155.77554,955.56718 -69.782257,741.22338 -17.001953,517.33594 -2.8955856,457.49849 8.4560138,398.69092 17.275391,341.29492 c 16.738084,38.46413 34.956467,74.05551 54.269531,106.56836 41.987638,70.68473 84.110498,118.47906 117.421878,148.30078 18.97079,16.98346 34.90491,28.01727 47.02148,35.02149 6.29302,3.63779 11.56013,6.18253 15.94336,8.05664 -3.19914,4.12013 -6.37555,8.1269 -9.49805,11.91797 -18.65559,22.65006 -35.65289,39.26158 -50.10156,50.96289 -19.02058,15.40384 -33.88253,22.5473 -44.18164,24.89257 9.9812,-2.27285 26.40757,-6.10485 49.1582,-16.97265 17.4387,-8.33031 38.86358,-20.92899 63.38477,-39.98242 43.23016,-33.59059 94.49381,-86.11679 145.24609,-163.65625 38.75618,-59.21178 73.71467,-127.71606 103.45703,-204.34375 0.38321,23.1833 1.00621,46.37959 1.9004,69.54297 7.50237,194.34465 33.20972,373.96131 82.35937,527.53125 39.22924,122.57323 91.45539,222.42803 155.04102,299.40043 60.39993,73.1159 128.00984,121.8825 197.72265,151.2441 69.21898,29.1536 138.26388,38.2584 201.34178,35.5645 65.941,-2.8163 125.5364,-18.4906 173.8457,-38.0293 54.4194,-22.01 95.3093,-49.088 121.6446,-72.418 15.6391,-13.8545 26.4476,-26.584 33.4453,-37.4649 4.0144,-6.2422 6.7708,-11.8635 8.5722,-16.8476 2.0691,-5.7247 2.8771,-10.5976 2.9434,-14.7422 -0.067,4.1746 -1.2175,8.9649 -3.8223,14.3105 -2.2622,4.6425 -5.6103,9.6798 -10.248,15.0625 -8.0729,9.3698 -20.1219,19.8495 -36.7852,30.6973 -28.0662,18.2712 -70.4164,38.2005 -124.1191,51.7246 -47.904,12.0638 -104.6078,18.8796 -164.5625,13.5703 -57.3743,-5.0808 -116.3313,-21.1507 -172.41408,-52.9414 C 920.16228,1246.4655 867.84113,1199.474 822.17383,1133.332 773.94608,1063.4817 734.09775,973.66808 704.6543,861.32031 667.60036,719.93316 649.66619,553.02019 647.25586,367.46484 644.85341,182.5158 658.0539,-4.8391889 675.18359,-172.45312 c 1.15919,-11.34268 -66.44424,-54.93322 -65.125,-66.7129 z m -1220.25586,70.56446 c -29.5145,0.1249 -58.62771,2.04127 -86.68359,5.17968 l 8.72461,75.779302 8.72461,75.779297 c 42.18009,-4.718389 84.76984,-6.845247 125.64648,-4.345703 40.83205,2.496816 77.42327,9.4598598 109.33985,21.3242184 47.87723,17.7974186 85.10029,46.5496496 111.76172,88.2519536 24.30771,38.020752 38.84017,85.480982 43.64257,138.185542 4.54149,49.84127 -0.14428,99.17762 -9.32421,139.15625 -10.69431,44.34658 -32.02863,88.47472 -60.5625,129.58594 -29.83363,42.98387 -66.26902,80.88083 -103.88672,111.57617 -42.30429,34.51951 -84.77988,58.95489 -122.48047,73.97461 -48.27975,19.23441 -86.38812,22.3235 -113.46094,17.90235 26.86441,4.66126 65.03496,5.72521 116.86914,-7.77149 40.49955,-10.54536 87.58476,-29.67613 136.82813,-59.59765 43.62712,-26.50895 88.23686,-61.13978 127.71679,-103.10743 37.53972,-39.90518 70.56194,-86.6191 92.3711,-138.42382 19.60748,-45.30908 34.16534,-103.25773 37.29297,-164.5 3.29081,-64.43804 -6.06602,-132.294266 -35.13282,-194.044926 -33.37369,-70.900396 -89.17104,-126.190704 -164.17773,-161.248044 -69.73398,-32.59294 -147.78302,-43.97546 -223.20899,-43.65625 z m -88.55859,872.34961 c -0.95517,-0.16574 -1.93083,-0.32368 -2.85742,-0.49805 0.93758,0.17643 1.89171,0.34034 2.85742,0.49805 z m -217.16992,-843.98633 c -69.01145,-0.20663 -143.27842,11.05653 -209.69142,44.783202 -60.2981,30.621352 -107.165,76.391671 -137.0859,134.289062 -26.2404,50.775324 -37.2094,106.653736 -36.2969,160.374996 0.8653,50.93948 12.4345,99.42663 31.1543,137.89258 20.8414,43.85025 51.2987,80.31916 84.6602,110.39063 34.9163,31.47305 73.8224,56.66336 110.1699,76.42187 40.6682,22.10728 79.94167,38.39566 110.82224,49.84766 37.81972,14.02536 73.64854,24.43451 87.05078,28.75781 -15.98982,-5.15801 -45.63745,-17.10738 -83.39648,-36.95508 -28.91896,-15.20099 -64.96314,-36.34237 -100.87504,-63.00976 -32.2921,-23.97943 -64.7924,-52.66208 -91.8828,-85.72266 -25.9697,-31.69294 -45.9653,-66.18732 -56.8574,-103.17969 -8.8195,-31.79099 -12.002,-70.87531 -6.9121,-110.56836 5.3623,-41.81765 19.3491,-80.51939 41.3027,-112.419918 24.3897,-35.440222 57.5681,-61.202005 98.6817,-78.066406 55.6065,-22.809287 121.48104,-27.722346 189.03708,-23.58789 l 3.91797,-64.011719 3.91797,-64.009767 c -12.33612,-0.75497 -24.9369,-1.1883 -37.7168,-1.22656 z"
         style="fill:#000000;fill-rule:nonzero;stroke:none;stroke-width:0.99999994px;stroke-linecap:butt;stroke-linejoin:miter;stroke-opacity:1"
         inkscape:connector-curvature="0" />
    </g>
  </g>
  <path
     style="fill:#000000;fill-rule:nonzero;stroke:none;stroke-width:0.26458332px;stroke-linecap:butt;stroke-linejoin:miter;stroke-opacity:1"
     d="m -0.94549933,-211.91084 c 14.43255433,60.13564 2.72237813,11.34324 17.15493233,71.47888 5.784635,24.10265 10.748006,44.783365 14.115602,58.815016 3.367596,14.031651 5.218946,21.745613 6.162663,25.677764 0.928506,3.868777 1.053614,4.390059 1.053614,4.390059 z M -16.15975,-38.660867 c 0,0 -0.125107,-0.521283 -1.053614,-4.390059 -0.943716,-3.932151 -2.795067,-11.646114 -6.162663,-25.677764 0,0 -14.115601,-58.81501 -14.115601,-58.81501 -8.676953,-36.15398 -8.47798,-35.32492 -17.154933,-71.47889 z"
     id="path77"
     inkscape:connector-curvature="0"
     inkscape:path-effect="#path-effect79"
     inkscape:original-d="m 10.690781,-45.104994 c 0,0 -6.4144685,-26.726954 0,0 z"
     transform="translate(54.646558,31.461015)" />
</svg>
